<svg id="Layer_1" data-name="Layer 1" xmlns="http://www.w3.org/2000/svg" viewBox="0 0 612 792"><defs><style>.cls-1,.cls-8{fill:#e07c68;}.cls-2{fill:#169a48;}.cls-3{fill:#333;}.cls-4{fill:#818285;}.cls-5{fill:#9f9f9f;}.cls-6{fill:#4b4c4d;}.cls-7{fill:#d47257;}.cls-7,.cls-8{stroke:#ae4c3b;stroke-miterlimit:10;}.cls-9{fill:#b65441;}.cls-10{fill:#2d2d2c;}.cls-11{fill:#921a1d;}.cls-12{fill:#fff;}.cls-13{fill:#e2e2e2;}.cls-14{fill:none;stroke:#b65441;stroke-linecap:round;stroke-linejoin:round;stroke-width:3px;}</style></defs><path class="cls-1" d="M330.3,310.59,435.3,478s89.37-91.72,112.55-126.28c11,5.92,22.09,25.53,31.57,25.4,0,0-85.78,200.39-168.83,170.2-30.9-11.24-95.39-144.81-95.39-144.81S322.06,314.7,330.3,310.59Z"/><path class="cls-1" d="M181.13,361.29c2.78,2.75,1.16,7.09-21,80.25-10.09,33.32-27.8,63.5-41.5,95.45-9.71,22.65-19,67-40.59,143.36,0,0-33.29-2.12-44-10.24,0,0,13.94-123.43,26.53-177.15,17.15-67.47,80.18-169.4,109.09-189.24C173.05,306.29,180.72,323.1,181.13,361.29Z"/><path class="cls-1" d="M77.78,671.85s6.29,15.7,13,27.2,3,20,7.12,30.3-10.12,8.92-13.44-1.84-2.4-15.75-5-16.21S70.68,736.45,70,743.84s2.1,26.12-1,28.88-11.57-8.08-10.1-27.37-.33-19-.33-19-1.76,7.44-3.6,15.44-1.33,17.87-.61,23.42-5.77,8-7.89,5-6.24-22.5-4-29.93S47.21,720,47.21,720s-7.81,17-9.07,21.38S40.28,763,35.84,766c-1.83,1.2-8-.78-8.26-25.1,0,0,1.47-11.79,4.09-19a36.13,36.13,0,0,0-6.29,12.57,97.87,97.87,0,0,0-2.75,19.75c-.32,6.56-7.08,5.39-7.7-6.23s1-24.33,4.52-30.34,7.21-41.94,17.87-54.7Z"/><path class="cls-2" d="M228.67,286s-71.13,4.55-86.33,34.73S76.18,441,76.18,441,91,481.45,133.39,496.44s38.44,75.12,38.44,75.12l187.28-76.39s34.83,17.69,88.05-28.43c-22.45-56.72-80-161.89-119.83-173.92s-81.49-6.76-81.49-6.76"/><path class="cls-3" d="M206,751c5-28.25,11.37-51.32,19.47-65.26l29.31.47,8.42,64.22q53.5-.54,107.06-.86l-.3-96.68S353.44,526.59,363,495.17c0,0-54.75-89.37-24.42-201.22,0,0-14.18-8-22.84-4.58C303.2,318.12,298.85,415,298.85,415L205.22,410s-2.17-93.14-11.64-118.63l-20.85,6.9s20.82,128.49-35.42,198.15C134.47,523.67,128,649,124,659c-1.5,3.82-6.45,39.83-10.34,92.55Q159.82,751.47,206,751Z"/><path class="cls-4" d="M288,551.53l-85.52-3.6a10,10,0,0,1-9.51-10.35l4.4-104.23,105.37,4.44L298.29,542A9.93,9.93,0,0,1,288,551.53Z"/><path class="cls-5" d="M358.79,474c15.8-5.12,55.86-19,76.6-34.61a6.76,6.76,0,0,1,10.09,2.17c5.58,10.57,10.06,18.78,12.68,23.53a6.7,6.7,0,0,1-1.42,8.27C444.74,484,407,513.21,364.85,505a6.84,6.84,0,0,1-5.4-5.21,163.78,163.78,0,0,0-4.94-17.21A6.7,6.7,0,0,1,358.79,474Z"/><path class="cls-5" d="M203.41,694.43l-1.39-.32c-.39,1.68-.82,3.53-1.27,5.57l1.39.31C202.6,698,203,696.1,203.41,694.43Z"/><path class="cls-5" d="M206.12,683.34l-1.38-.36s-.51,1.91-1.4,5.56l1.39.34C205.61,685.25,206.12,683.35,206.12,683.34Z"/><path class="cls-5" d="M200.92,705.56l-1.39-.3q-.57,2.65-1.19,5.59l1.4.29Q200.36,708.2,200.92,705.56Z"/><path class="cls-5" d="M194.33,739.13l-1.4-.25c-.32,1.83-.65,3.71-1,5.62l1.4.25Q193.85,741.87,194.33,739.13Z"/><path class="cls-5" d="M196.4,727.92l-1.4-.27q-.52,2.73-1.05,5.62l1.4.25C195.7,731.61,196.06,729.73,196.4,727.92Z"/><path class="cls-5" d="M198.59,716.72l-1.4-.28q-.54,2.7-1.11,5.6l1.4.27C197.85,720.39,198.22,718.52,198.59,716.72Z"/><rect class="cls-5" x="275.22" y="720.95" width="1.42" height="5.72" transform="translate(-99.19 46.08) rotate(-8.1)"/><rect class="cls-5" x="273.61" y="709.63" width="1.42" height="5.72" transform="translate(-97.6 45.73) rotate(-8.1)"/><polygon class="cls-5" points="277.21 738.05 278.63 737.85 277.84 732.19 276.42 732.39 277.21 738.05"/><polygon class="cls-5" points="278.8 749.36 280.21 749.16 279.42 743.51 278.01 743.71 278.8 749.36"/><rect class="cls-5" x="270.33" y="686.9" width="1.42" height="5.78" transform="translate(-97.15 46.59) rotate(-8.34)"/><polygon class="cls-5" points="272.4 704.09 273.8 703.89 272.99 698.22 271.58 698.43 272.4 704.09"/><path class="cls-5" d="M190,681.17a237.91,237.91,0,0,0,109.79,1c1.9-.43,1.09-3.35-.81-2.92a234.28,234.28,0,0,1-108.18-1c-1.89-.46-2.69,2.46-.8,2.92Z"/><path class="cls-5" d="M227,619.61a603.46,603.46,0,0,0-3.43,65.85,1.52,1.52,0,0,0,3,0A602.72,602.72,0,0,1,230,619.65C229,619.63,228,619.61,227,619.61Z"/><path class="cls-5" d="M256.12,620.64l-3-.07a506.87,506.87,0,0,0-2.48,64.14c0,1.95,3.08,1.95,3,0A507.63,507.63,0,0,1,256.12,620.64Z"/><path class="cls-5" d="M364.84,607.52c-.09,0-.7,0-.79,0a678.46,678.46,0,0,1-234.66,1.7l-.33,3c77.28,13,159.05,12.61,236.09-1.56Z"/><path class="cls-5" d="M370.34,740.88c-14.45-15.37-20.3-40.2-22.62-60.22-2.58-22.26-1.42-44.83-.39-67.15.09-2-2.94-1.94-3,0-1.12,24.24-2.06,48.53,1.07,72.67,2.58,20,9.61,44.31,24.67,58.75a1.66,1.66,0,0,0,.3.19Z"/><path class="cls-5" d="M152.07,618.35c-.42-1.91-3.33-1.1-2.92.8,4.74,21.58.77,44.56-4.66,65.68-4.68,18.23-13.19,35.59-27.19,48.37l-.4,4.55h0c15.24-12.82,24.48-31,29.88-49.84C153.1,665.91,157,640.92,152.07,618.35Z"/><path class="cls-6" d="M186.29,50.71S193,28,204.9,19.6s79.68-9.77,111,6.32c8.51,12.76,11.42,35.51,11.42,35.51"/><ellipse class="cls-3" cx="247.74" cy="118.2" rx="74.26" ry="190.16" transform="translate(109.97 355.61) rotate(-85.38)"/><path class="cls-5" d="M148.81,488.49a9.05,9.05,0,0,0-1.3-9.75C135.43,464.49,94.64,419,87.07,422.47,76.24,429.15,66.44,443.7,70.19,454s26.22,45,64.79,50.23C142,500.59,146.43,493.49,148.81,488.49Z"/><path class="cls-7" d="M281.05,254.67,280,274.94l-1.35,25.4s-5,9.56-27.8,9.56-27.42-6.54-27.42-6.54l-.92-11.26-3.06-37.43Z"/><path class="cls-8" d="M180.54,162.51s-17.44-17.06-31.36-5.92c-16.45,13.15.76,60.47,29.94,55.46Z"/><path class="cls-9" d="M170.36,200.28a2.89,2.89,0,0,1-2.77-2.66c-1.87-23.29-15.51-27.33-16.09-27.49a2.89,2.89,0,0,1,1.47-5.58c.74.19,18.15,5,20.37,32.61a2.88,2.88,0,0,1-2.64,3.11Z"/><path class="cls-9" d="M154.06,188.4a2.84,2.84,0,0,1-1.89-.79,2.89,2.89,0,0,1-.1-4.08,16.35,16.35,0,0,1,15.55-3.92,2.89,2.89,0,0,1-1.43,5.59,10.46,10.46,0,0,0-9.94,2.31A2.88,2.88,0,0,1,154.06,188.4Z"/><path class="cls-8" d="M313.78,162.51s17.43-17.06,31.36-5.92c16.45,13.15-.76,60.47-29.94,55.46Z"/><path class="cls-9" d="M324,200.28a2.88,2.88,0,0,0,2.77-2.66c1.88-23.29,15.52-27.33,16.1-27.49a2.89,2.89,0,0,0-1.47-5.58c-.74.19-18.16,5-20.38,32.61a2.89,2.89,0,0,0,2.65,3.11Z"/><path class="cls-9" d="M340.26,188.4a2.86,2.86,0,0,0,1.89-.79,2.89,2.89,0,0,0,.1-4.08,16.37,16.37,0,0,0-15.56-3.92,2.89,2.89,0,0,0,1.43,5.59,10.49,10.49,0,0,1,9.95,2.31A2.86,2.86,0,0,0,340.26,188.4Z"/><path class="cls-8" d="M330.18,149.07c-.29,3.28-.61,6.65-1,10.05-5.91,51.7-24.63,115.47-81.14,115.47-54.21,0-74.71-57.94-82.29-107.69-.81-5.55-1.5-11-2.06-16.25-5.15-48.33,32.37-90.87,80.94-91.44H249A82.76,82.76,0,0,1,330.18,149.07Z"/><path class="cls-10" d="M222.18,122.71l4.17,9.55s-18.86,4.44-27.5,17L194,141.91S199.63,127.56,222.18,122.71Z"/><path class="cls-10" d="M273.82,122.73l-4.15,9.56s18.87,4.4,27.53,17l4.83-7.37S296.39,127.55,273.82,122.73Z"/><path class="cls-10" d="M222.16,159.12c0,6-2.68,10.91-6,10.91s-6-4.88-6-10.9,2.68-10.91,6-10.91S222.16,153.1,222.16,159.12Z"/><path class="cls-10" d="M276.06,159.12c0,6,2.67,10.91,6,10.91s6-4.88,6-10.9-2.67-10.91-6-10.91S276.06,153.1,276.06,159.12Z"/><path class="cls-10" d="M330.18,149.07c-.29,3.28-.61,6.65-1,10.05-5.79-3.55-8.37-10.1-9.47-16.15a82.28,82.28,0,0,0-6-20.33c-.34-.72-.64-1.45-.9-2.18-1.73-4.9-13.36-13.6-14.67-15a52.07,52.07,0,0,0-20.21-13.27l-.41-.16c-8.88-3.45-32.89,1-35.41.87A65,65,0,0,0,207,101c-.46.26-.91.51-1.37.75A48.26,48.26,0,0,0,185,123a30.16,30.16,0,0,1-2.28,3.75,39.29,39.29,0,0,0-7.54,20.09c-.76,11.69-9.4,20.11-9.4,20.11-.81-5.55-1.5-11-2.06-16.25-5.15-48.33,32.37-90.87,80.94-91.44H249A82.76,82.76,0,0,1,330.18,149.07Z"/><path class="cls-11" d="M285.85,200.53A59,59,0,0,1,282,215.61c-3.7,9.15-10.81,19.28-24.31,20.32-16.37,1.25-28.62-1.07-36-13.63-3-5.11-5.18-11.92-6.51-20.88a35.87,35.87,0,0,0,3.4,1.81,63.65,63.65,0,0,0,34.85,5.44c14.87-1.87,24.24-4.83,28.88-6.62A33.38,33.38,0,0,0,285.85,200.53Z"/><path class="cls-12" d="M281.62,210.6h0c-.22,1-.4,1.6-.4,1.6h0c-.08.12-2.17,3.34-11.5,6.13a81.13,81.13,0,0,1-10.84,2.36,68.91,68.91,0,0,1-19.9,0,69.93,69.93,0,0,1-15.45-3.85h0a11.7,11.7,0,0,1-1.11-1.8h0a52.59,52.59,0,0,1-3.76-11.83,63.65,63.65,0,0,0,34.85,5.44c14.87-1.87,24.24-4.83,28.88-6.62A31.35,31.35,0,0,1,281.62,210.6Z"/><path class="cls-12" d="M282,215.61c-3.7,9.15-10.81,19.28-24.31,20.32-16.37,1.25-28.62-1.07-36-13.63a25,25,0,0,1,1.3-4.41c.27-.66.46-1,.46-1h0a84.8,84.8,0,0,0,26.9,2.59,95.41,95.41,0,0,0,21.42-3.8,68.82,68.82,0,0,0,9.37-3.44h0l.31,1.32Z"/><path class="cls-13" d="M256,219.71a95.16,95.16,0,0,1-17,1A49,49,0,0,1,223,217.89c.27-.66.46-1,.46-1a11.7,11.7,0,0,1-1.11-1.8c.28.1,9.38,3.29,28,4.4C252.19,219.56,254.06,219.64,256,219.71Z"/><path class="cls-13" d="M281.22,212.21l.31,1.32c-3.28,2.79-7.81,4.16-11.82,4.82a98.74,98.74,0,0,1-10.64,1,60.69,60.69,0,0,0,12.77-3.72,66.79,66.79,0,0,0,9.78-5C281.4,211.61,281.22,212.21,281.22,212.21Z"/><path class="cls-14" d="M247.43,159.94l10.89,33.95c.51,1.56-.85,3.11-2.72,3.11H243.15"/><path class="cls-3" d="M115.08,123.41s112.56-33.88,257.43,19.27c29.92-37.81,0-58.86,0-58.86s-188.6-64.73-236-9.25S115.08,123.41,115.08,123.41Z"/><path class="cls-1" d="M605.3,333.48c-.16.6-.33,1.2-.51,1.81v0c-.22.77-.45,1.55-.71,2.35-.56,1.83-1.18,3.69-1.87,5.55v0c-5.44,15.1-14.34,31.37-26.4,40.66,0,0-25.63-13.67-30.07-20.06,0,0-6.09-14.24-8.52-27.54,0,0-4.45-16.64-.93-22.79s10.62-6.28,10.62-6.28-1.78-45,6.78-56.67,7.36,21,9.1,45.53c.31-1.59.54-6.56,9.13-8.59,7-1.66,7.82,12.24,7.82,12.24s8.52-12.09,13.57-9.35c5.53,3,2.44,17.67,2.32,18.26.37-.35,6.54-6.14,11.62-.39C609.44,310.76,608.73,321,605.3,333.48Z"/><path class="cls-9" d="M568,335s12.48,8.81,5.53,30.13c0,0,12.42-16.81-5.93-35.18A4.72,4.72,0,0,0,568,335Z"/><path class="cls-9" d="M605.3,333.48c-.16.6-.33,1.2-.51,1.81v0c-.22.77-.45,1.55-.71,2.35a12.3,12.3,0,0,1-8.76,4.86c-10.2,1.33-8.47-9.27-8.47-9.27s-4.44,3.16-8.35,2.09-4.88-8.23-4.88-8.23-2.81,6.28-9.76,4.47-5.21-16.47-1.3-20.71c-.12.5-3.06,12.64,1.29,16.46s10.9-3,12.9-8.93c-.2.74-2.75,11,2.89,13.66s10.79-6.7,11.35-7.71c-.33.95-3.08,8.92.29,12.65C594.44,340.5,601.59,337.67,605.3,333.48Z"/><path class="cls-9" d="M543,334.81s7.7,9.5,17.68,7.66,5.17-11.77,1.13-15.82c0,0,6,3.15,7.11,8s-.22,13.57-11.3,11.88S543,334.81,543,334.81Z"/></svg>