<svg id="Layer_1" data-name="Layer 1" xmlns="http://www.w3.org/2000/svg" viewBox="0 0 594.39 147.22"><defs><style>.cls-1{fill:none;}.cls-2{fill:#089900;}.cls-3{fill:#f05a2b;}</style></defs><rect class="cls-1" width="594.39" height="147.22"/><path class="cls-2" d="M347.05,376.57l-7.9,12.54a26.35,26.35,0,0,0-14.09-4.46c-3.63,0-5.72,1.28-5.72,3.18,0,2.82,4.45,4.18,10.27,6.18,8.63,2.91,19.35,6.91,19.35,20.27,0,14.63-10.17,22.9-27.35,22.9a40,40,0,0,1-23.72-7.36l5.82-13c4.63,3.45,11.09,5.64,19.08,5.64,4.36,0,6.91-1.55,6.91-4.09,0-3.37-4.36-4.64-9.63-6.36-8.73-2.91-20-6.73-20-21.54,0-13.36,9.09-20.54,24.45-20.54A41.08,41.08,0,0,1,347.05,376.57Z" transform="translate(-9.31 -322.3)"/><path class="cls-2" d="M400.12,421.91v14.36H353.6V370.84h45.53V385.2H372.59v10.54h23.35V410.1H372.59v11.81Z" transform="translate(-9.31 -322.3)"/><path class="cls-2" d="M459.46,417.73c0,12.36-10.72,19.45-28.89,19.45-5,0-17.54-.37-25.18-.91V370.84c9.09-.64,19.45-.91,23.36-.91,17.63,0,28,7,28,18.63a15.73,15.73,0,0,1-7.45,13.72C455.83,405.46,459.46,410.73,459.46,417.73Zm-35.07-33.35v11.36h4.45c5.45,0,8.18-2.18,8.18-5.82s-2.73-5.63-8.18-5.63C427.57,384.29,426.11,384.29,424.39,384.38Zm15.35,32.08c0-4.09-3.36-6.36-9.08-6.36h-6.27v12.63c2.45.09,4.63.09,6.27.09C436.38,422.82,439.74,420.46,439.74,416.46Z" transform="translate(-9.31 -322.3)"/><path class="cls-2" d="M499.36,424.09H477.73l-4,12.18h-17.9l23.81-63.88a22.07,22.07,0,0,1,9.9-2.46c6,0,10.27,3.18,13,10.18l20.81,56.16h-20Zm-4.82-14.36-6-20-6,20Z" transform="translate(-9.31 -322.3)"/><path class="cls-2" d="M569.24,376.57l-7.91,12.54a26.35,26.35,0,0,0-14.08-4.46c-3.64,0-5.73,1.28-5.73,3.18,0,2.82,4.45,4.18,10.27,6.18,8.63,2.91,19.36,6.91,19.36,20.27,0,14.63-10.18,22.9-27.36,22.9a40,40,0,0,1-23.71-7.36l5.81-13c4.64,3.45,11.09,5.64,19.08,5.64,4.37,0,6.91-1.55,6.91-4.09,0-3.37-4.36-4.64-9.63-6.36-8.73-2.91-20-6.73-20-21.54,0-13.36,9.08-20.54,24.44-20.54A41.13,41.13,0,0,1,569.24,376.57Z" transform="translate(-9.31 -322.3)"/><path class="cls-3" d="M84.86,424.08H63.23l-4,12.17H41.33l23.81-63.87a22.06,22.06,0,0,1,9.9-2.45c6,0,10.27,3.18,13,10.17l20.8,56.15h-20ZM80,409.72l-6-20-6,20Z" transform="translate(-9.31 -322.3)"/><path class="cls-3" d="M164.73,397.09v37.62a19.73,19.73,0,0,1-8.91,2.45c-4.72,0-8-2.63-9.08-6.45-3.82,5-8.91,6.45-16.63,6.45-16.26,0-25.26-14.35-25.26-33.62s11.18-33.61,30.71-33.61c9.09,0,19,2.81,25.44,14.72l-17.44,6.81c-2.09-4.18-4.64-6.81-8.54-6.81-4.91,0-10.54,4.63-10.54,18.89s5.81,18.9,11.17,18.9c6.09,0,10-1.81,10.09-11h-9.36V397.09Z" transform="translate(-9.31 -322.3)"/><path class="cls-3" d="M226.42,434.71a28.58,28.58,0,0,1-10.81,2.45c-6.27,0-9.17-4-10.08-9.72l-.91-5.54c-.82-5.82-3.45-9.09-8.36-9.09h-6.82v23.44h-19V370.83c6-.54,20-.9,24.17-.9,18.27,0,29.08,7.36,29.08,20,0,7-3.36,12.35-9.45,15.71,5.36,3.46,8.27,8.82,9.36,15.54l.82,5.27A42.74,42.74,0,0,0,226.42,434.71Zm-37-50.34v14.09h5c6.82,0,9.63-2.64,9.63-7.18s-2.9-7-9.54-7C193.17,384.28,191.44,384.28,189.44,384.37Z" transform="translate(-9.31 -322.3)"/><path class="cls-3" d="M280,432.44c7.76-4.86,13.54-12.53,14.29-26.94a15.75,15.75,0,0,0-11.24-16.06,11.78,11.78,0,0,0-1.28-.27c-3.15-.45-6.16-.09-8.33,2.64a21.24,21.24,0,0,0-1.08,2.13,7.49,7.49,0,0,1-1.28,1.67c-.93.89-1.95,1.69-2.92,2.53a2.11,2.11,0,0,0-.26.41,6.73,6.73,0,0,0,1.07.19c1.11,0,2.22,0,3.33,0a9.17,9.17,0,0,1,7.3,3.29,17.39,17.39,0,0,0,2.58,2.35c1.5,1.05,2.58.82,3.76-.59.11-.13.2-.28.41-.58a1.83,1.83,0,0,1-.74,2.09c-1.71,1.28-3.45.77-5.25-.19-.29,1.07-.56,2.07-.82,3.08C275.1,425.8,279.9,432.53,280,432.44Zm-3.22-38.56c0,.14,0,.27,0,.4-.39.3-.74.76-1.17.84a1,1,0,1,1,0-2.06C276.06,393.13,276.42,393.59,276.81,393.88Z" transform="translate(-9.31 -322.3)"/><path class="cls-3" d="M272.29,399.77c1.58,1.37,1.53,1.35.73,3.13a32.46,32.46,0,0,0-1.3,3.62,3.6,3.6,0,0,0-.05,1.5,1.26,1.26,0,0,0,1.25,1.18c3,.22,6.14-3.35,5.5-6.22-.47-2.09-2.28-3.34-4.82-3.32C273.23,399.66,272.85,399.72,272.29,399.77Z" transform="translate(-9.31 -322.3)"/><path class="cls-3" d="M283.76,388.5a6.85,6.85,0,0,1,4.57,1.51c1.09.7,2.2,1.39,3.61,1a3,3,0,0,0,2.41-2,3,3,0,0,0-1.13-3.22,5.22,5.22,0,0,0-5.67-.67A9.29,9.29,0,0,0,283.76,388.5Z" transform="translate(-9.31 -322.3)"/><path class="cls-3" d="M278,388.36c2.82-.36,5.48-.94,7.23-3.38a6.89,6.89,0,0,0,.9-1.64,2.85,2.85,0,0,0-1.83-3.9,3.2,3.2,0,0,0-4,1.61,5.46,5.46,0,0,0-.49,2.08A6.67,6.67,0,0,1,278,388.36Z" transform="translate(-9.31 -322.3)"/><path class="cls-3" d="M272.53,392c.57-1.6,1.92-2.29,3.22-3a3.42,3.42,0,0,0,2.09-2.74,2.74,2.74,0,0,0-1.51-2.74,2.56,2.56,0,0,0-3,.49,7.79,7.79,0,0,0-1.53,2.29C271,388.27,271.68,390.13,272.53,392Z" transform="translate(-9.31 -322.3)"/><path class="cls-3" d="M262,437.05c-.61-3.56-7.68-10.17-3.92-10.53a70.6,70.6,0,0,0,7.7-.89,6.49,6.49,0,0,0,2.37-.77.67.67,0,0,0,.32-.62c0-.51-2.36-1.93-1.51-2.26,1.69-.31,5.2,1,6.43,0,1.78-1.47,1.42-6.9-.6-7.26-4.48-2.23-7.09-5.78-8.78-10.25-.24-.63-.85-1.3-.64-1.93,2.09-6-1-9.54-1.55-14.31-.12-.3-.57-1.59-1.73-.39-2.18,2.23-5.06,5.55-4.85,10.13a.5.5,0,0,1-.75.44c-3.43-2-1.79-4.7-8.37-6.8a.62.62,0,0,0-.76.37c-.35,1-1.39,3.27-.88,4.53.21.53-.42,1.37-1.22,1.79a24.74,24.74,0,0,0-11.3,11.3c-1.76,3.82-3.11,9.08-1.73,11.74C237.85,436,253.89,437.4,262,437.05Z" transform="translate(-9.31 -322.3)"/><path class="cls-3" d="M258.94,362.31c2.64-1.91,3.51-4.3,2.11-5.87-.26.54-.49,1-.75,1.53a4.67,4.67,0,0,1-2.67,2.43,1.62,1.62,0,0,1-.77.14,16,16,0,0,0-2.12-.37,11.23,11.23,0,0,0-2.11.36c2.59-2.16,3.18-4.44,1.47-5.77a1.71,1.71,0,0,0-.2.33c-.46,1.88-2,3.08-3.9,4a12.85,12.85,0,0,0-1.5.84,2.89,2.89,0,0,0-1.27,3.37c-.46-.33-.91-.67-1.37-1a6.27,6.27,0,0,0-5.15-1.13c-.27.07-.52.15-.77.24-1.22.48-1.51,1.2-.61,2s2,1.49,3.09,2.27c-3.17,1.05.84,8-1.73,9.13a26.9,26.9,0,0,0-3.22,2.28,30.3,30.3,0,0,0-6.4,7.64c-6.08,9.34-3.87,24-3.83,26s2.93-12.15,10.86-14.78c5.63-1.87,4.12-4.18,5.29-6.51a3.29,3.29,0,0,1,3.22-2.14c2.17.2,8.8-3,10.9-3.5a30.14,30.14,0,0,1,8.63-.25c.53.12,1.07.23,1.6.31,1.88.28,2.81-.08,3.85-1.38a7.19,7.19,0,0,1,1.07-.86,5.6,5.6,0,0,0,1.18-1,3.92,3.92,0,0,0,.48-3.52,2.12,2.12,0,0,0-1.14-1.08c-3.23-1.3-5.25-3.65-7.59-5.71a3.44,3.44,0,0,1-1-1.49,10.45,10.45,0,0,0-3.36-4.53C260.5,363.63,259.74,363,258.94,362.31Z" transform="translate(-9.31 -322.3)"/></svg>