<svg id="Layer_1" data-name="Layer 1" xmlns="http://www.w3.org/2000/svg" viewBox="0 0 612 792"><defs><style>.cls-1{fill:#e89e7d;stroke:#f69668;stroke-miterlimit:10;}.cls-2{fill:#089900;}.cls-3{fill:#333;}.cls-4{fill:#808285;}.cls-5{fill:#9e9e9e;}.cls-6{fill:#4a4c4d;}.cls-7{fill:#c17553;}.cls-8{fill:#2c2c2c;}.cls-9{fill:#901a1d;}.cls-10{fill:#fff;}.cls-11{fill:#e1e1e1;}.cls-12{fill:none;stroke:#c17553;stroke-linecap:round;stroke-linejoin:round;stroke-width:3px;}</style></defs><path class="cls-1" d="M324.52,310.11,428.78,476.38S517.52,385.31,540.54,351c11,5.87,21.93,25.34,31.35,25.21,0,0-85.19,199-167.64,169-30.68-11.16-94.72-143.79-94.72-143.79S316.34,314.2,324.52,310.11Z"/><path class="cls-1" d="M176.4,360.45c2.77,2.74,1.15,7.05-20.84,79.69-10,33.08-27.6,63.06-41.2,94.78C104.71,557.4,95.54,601.4,74,677.26c0,0-33.05-2.09-43.65-10.17,0,0,13.85-122.55,26.35-175.89,17-67,79.61-168.21,108.32-187.91C168.38,305.85,176,322.54,176.4,360.45Z"/><path class="cls-1" d="M73.78,668.83s6.24,15.59,12.86,27,2.93,19.85,7.07,30.08-10,8.86-13.34-1.83S78,708.46,75.38,708s-8.65,25-9.32,32.31,2.08,25.94-1,28.68-11.49-8-10-27.18S54.67,723,54.67,723s-1.74,7.39-3.57,15.33-1.32,17.75-.61,23.26-5.73,7.94-7.82,4.91-6.2-22.34-4-29.71,4.73-20.1,4.73-20.1-7.75,16.86-9,21.24,2.12,21.47-2.28,24.36c-1.82,1.2-8-.78-8.21-24.92,0,0,1.46-11.71,4.07-18.89A35.68,35.68,0,0,0,21.75,731,97.1,97.1,0,0,0,19,750.56c-.32,6.51-7,5.34-7.64-6.19s1-24.16,4.48-30.13S23,672.6,33.6,659.93Z"/><path class="cls-2" d="M223.61,285.7s-70.63,4.52-85.73,34.49S72.19,439.56,72.19,439.56,86.92,479.77,129,494.65s38.17,74.59,38.17,74.59l186-75.85s34.58,17.57,87.43-28.23c-22.3-56.31-79.48-160.74-119-172.69s-80.92-6.72-80.92-6.72"/><path class="cls-3" d="M194.68,791.9c5.57-49.17,13.49-88.23,25.71-109.27l29.1.46L263.77,791.9c12.67-.2,80.09,0,100.54,0L363.86,650S347.49,524.59,357,493.39c0,0-54.37-88.74-24.25-199.8,0,0-14.08-8-22.68-4.55-12.49,28.55-16.81,124.71-16.81,124.71l-93-4.9S198.17,316.36,188.76,291l-20.7,6.86s20.67,127.58-35.17,196.75c-2.82,27-9.28,151.46-13.21,161.45-1.91,4.85-8.72,58.55-12.46,135.8C120.16,792,190.53,792.05,194.68,791.9Z"/><path class="cls-4" d="M190,434.16H294.76a0,0,0,0,1,0,0V537.68a9.94,9.94,0,0,1-9.94,9.94H200a9.94,9.94,0,0,1-9.94-9.94V434.16A0,0,0,0,1,190,434.16Z" transform="translate(20.89 -9.78) rotate(2.41)"/><path class="cls-4" d="M352.81,472.37c15.69-5.08,55.46-18.89,76.06-34.37a6.72,6.72,0,0,1,10,2.16c5.54,10.5,10,18.65,12.59,23.37a6.64,6.64,0,0,1-1.41,8.2c-11.91,10.52-49.36,39.58-91.24,31.4a6.77,6.77,0,0,1-5.36-5.17,164.56,164.56,0,0,0-4.91-17.09A6.65,6.65,0,0,1,352.81,472.37Z"/><path class="cls-5" d="M201.22,680.24l-1.37-.37s-.51,1.9-1.39,5.53l1.37.34C200.71,682.13,201.22,680.24,201.22,680.24Z"/><path class="cls-5" d="M198.52,691.25l-1.38-.32c-.38,1.66-.81,3.51-1.26,5.53l1.38.31C197.72,694.75,198.13,692.91,198.52,691.25Z"/><path class="cls-5" d="M187.58,746.79l-1.39-.24q-.47,2.75-.93,5.6l1.4.22Q187.13,749.54,187.58,746.79Z"/><path class="cls-5" d="M189.51,735.63l-1.39-.25q-.48,2.73-1,5.58l1.39.25Q189,738.36,189.51,735.63Z"/><path class="cls-5" d="M196.05,702.3l-1.38-.3c-.38,1.75-.78,3.6-1.18,5.55l1.39.29Q195.48,704.93,196.05,702.3Z"/><path class="cls-5" d="M191.56,724.5l-1.39-.27q-.51,2.71-1,5.58l1.39.25C190.87,728.16,191.22,726.3,191.56,724.5Z"/><path class="cls-5" d="M193.74,713.38l-1.39-.28q-.54,2.68-1.11,5.56l1.39.28Q193.2,716.06,193.74,713.38Z"/><path class="cls-5" d="M185.77,758l-1.4-.22q-.44,2.76-.87,5.6l1.4.22Q185.33,760.72,185.77,758Z"/><path class="cls-5" d="M182.47,780.37l-1.4-.2c-.25,1.85-.51,3.73-.76,5.62l1.41.19Q182.1,783.15,182.47,780.37Z"/><path class="cls-5" d="M184.06,769.16l-1.4-.21c-.27,1.85-.54,3.71-.81,5.61l1.4.2Q183.66,771.93,184.06,769.16Z"/><rect class="cls-5" x="268.23" y="706.34" width="1.41" height="5.68" transform="translate(-97.21 44.95) rotate(-8.1)"/><rect class="cls-5" x="269.83" y="717.58" width="1.41" height="5.68" transform="translate(-98.78 45.29) rotate(-8.1)"/><rect class="cls-5" x="264.97" y="683.77" width="1.41" height="5.74" transform="matrix(0.99, -0.14, 0.14, 0.99, -96.75, 45.78)"/><polygon class="cls-5" points="267.02 700.84 268.42 700.64 267.61 695.01 266.21 695.22 267.02 700.84"/><polygon class="cls-5" points="273.38 745.79 274.78 745.6 274 739.98 272.6 740.18 273.38 745.79"/><polygon class="cls-5" points="271.81 734.56 273.21 734.37 272.43 728.74 271.02 728.94 271.81 734.56"/><polygon class="cls-5" points="278.01 779.49 279.42 779.3 278.65 773.68 277.25 773.87 278.01 779.49"/><rect class="cls-5" x="274.54" y="751.28" width="1.42" height="5.67" transform="translate(-100.37 44.64) rotate(-7.85)"/><rect class="cls-5" x="276.09" y="762.52" width="1.42" height="5.67" transform="translate(-101.89 44.95) rotate(-7.85)"/><polygon class="cls-5" points="279.54 790.73 280.94 790.53 280.18 784.92 278.78 785.11 279.54 790.73"/><path class="cls-5" d="M185.2,678.08a236.2,236.2,0,0,0,109,1c1.89-.43,1.09-3.33-.8-2.9a232.74,232.74,0,0,1-107.41-1c-1.88-.47-2.68,2.43-.8,2.89Z"/><path class="cls-5" d="M221.92,617a600.17,600.17,0,0,0-3.41,65.39,1.51,1.51,0,0,0,3,0,599.12,599.12,0,0,1,3.4-65.34C223.92,617,222.93,617,221.92,617Z"/><path class="cls-5" d="M250.86,618l-3-.07a501.54,501.54,0,0,0-2.45,63.68c0,1.94,3.05,1.94,3,0A504.16,504.16,0,0,1,250.86,618Z"/><path class="cls-5" d="M358.81,605c-.08,0-.69,0-.78,0a673.65,673.65,0,0,1-233,1.69l-.32,3c76.74,12.88,157.93,12.53,234.43-1.54Z"/><path class="cls-5" d="M364.28,737.37c-14.35-15.27-20.16-39.91-22.46-59.8-2.56-22.1-1.42-44.51-.39-66.67.09-1.94-2.92-1.93-3,0-1.11,24.07-2,48.19,1.06,72.15,2.57,19.82,9.54,44,24.5,58.34a1.66,1.66,0,0,0,.3.19Z"/><path class="cls-5" d="M147.55,615.7c-.42-1.89-3.31-1.09-2.9.8,4.71,21.43.76,44.25-4.63,65.22-4.65,18.1-13.1,35.34-27,48l-.41,4.53h0c15.13-12.73,24.3-30.78,29.67-49.49C148.57,662.93,152.47,638.12,147.55,615.7Z"/><path class="cls-6" d="M181.53,52.06S188.15,29.54,200,21.18s79.11-9.71,110.2,6.27c8.45,12.67,11.34,35.26,11.34,35.26"/><ellipse class="cls-3" cx="242.54" cy="119.08" rx="73.73" ry="188.82" transform="translate(104.32 351.24) rotate(-85.38)"/><path class="cls-4" d="M144.31,486.76a9,9,0,0,0-1.29-9.69c-12-14.14-52.5-59.31-60-55.87-10.76,6.64-20.49,21.08-16.76,31.35s26,44.73,64.33,49.88C137.56,498.77,142,491.72,144.31,486.76Z"/><path class="cls-1" d="M275.61,254.59l-1.06,20.12-1.34,25.22s-5,9.49-27.61,9.49-27.23-6.48-27.23-6.48l-.91-11.19-3-37.16Z"/><path class="cls-1" d="M175.81,163.08s-17.31-16.94-31.13-5.89c-16.34,13.06.75,60.06,29.72,55.08Z"/><path class="cls-7" d="M165.71,200.58a2.87,2.87,0,0,1-2.75-2.64c-1.86-23.12-15.4-27.13-16-27.29a2.87,2.87,0,0,1,1.46-5.55c.74.2,18,5,20.23,32.38a2.87,2.87,0,0,1-2.63,3.09Z"/><path class="cls-7" d="M149.52,188.79a2.87,2.87,0,0,1-2-4.84,16.26,16.26,0,0,1,15.45-3.9,2.86,2.86,0,1,1-1.42,5.55,10.39,10.39,0,0,0-9.87,2.3A2.89,2.89,0,0,1,149.52,188.79Z"/><path class="cls-1" d="M308.11,163.08s17.31-16.94,31.14-5.89c16.33,13.06-.75,60.06-29.72,55.08Z"/><path class="cls-7" d="M318.22,200.58a2.87,2.87,0,0,0,2.75-2.64c1.86-23.12,15.4-27.13,16-27.29a2.87,2.87,0,0,0-1.46-5.55c-.74.2-18,5-20.23,32.38a2.87,2.87,0,0,0,2.63,3.09Z"/><path class="cls-7" d="M334.41,188.79a2.91,2.91,0,0,0,1.87-.79,2.86,2.86,0,0,0,.11-4.05,16.26,16.26,0,0,0-15.45-3.9,2.86,2.86,0,1,0,1.42,5.55,10.41,10.41,0,0,1,9.87,2.3A2.89,2.89,0,0,0,334.41,188.79Z"/><path class="cls-1" d="M324.4,149.73c-.28,3.26-.61,6.6-1,10-5.87,51.33-24.46,114.65-80.57,114.65-53.83,0-74.19-57.52-81.71-106.93-.8-5.51-1.49-10.9-2.05-16.13-5.11-48,32.14-90.23,80.38-90.79h4.3A82.17,82.17,0,0,1,324.4,149.73Z"/><path class="cls-8" d="M217.17,123.56,221.3,133s-18.73,4.41-27.3,16.88l-4.82-7.3S194.77,128.38,217.17,123.56Z"/><path class="cls-8" d="M268.44,123.58l-4.12,9.49s18.74,4.37,27.33,16.84l4.8-7.32S290.85,128.36,268.44,123.58Z"/><path class="cls-8" d="M217.14,159.71c0,6-2.66,10.83-5.94,10.83s-5.95-4.85-6-10.82,2.66-10.83,5.95-10.83S217.14,153.74,217.14,159.71Z"/><path class="cls-8" d="M270.66,159.71c0,6,2.66,10.83,5.94,10.83s5.95-4.85,5.95-10.82-2.66-10.83-5.94-10.83S270.66,153.74,270.66,159.71Z"/><path class="cls-8" d="M325.07,148.89c-.28,3.26-.68,7.78-1.08,11.16-5.76-3.52-9.44-10.37-10.53-16.38a81.64,81.64,0,0,0-5.95-20.18c-.33-.72-.63-1.44-.88-2.16-1.73-4.87-13.27-13.51-14.57-14.91A51.82,51.82,0,0,0,272,93.25l-.41-.16c-8.81-3.42-32.66,1-35.16.86a64.54,64.54,0,0,0-34.9,8.09c-.45.26-.91.51-1.36.75a48,48,0,0,0-20.49,21,28.53,28.53,0,0,1-2.26,3.72,39,39,0,0,0-7.48,20c-.76,11.6-9.34,20-9.34,20-.8-5.51-3-12.64-3.52-17.87-5.11-48,33.61-88.49,81.85-89.05h4.3C290.89,61.15,329.17,101.42,325.07,148.89Z"/><path class="cls-9" d="M280.39,200.83a58.6,58.6,0,0,1-3.81,15c-3.67,9.09-10.73,19.14-24.13,20.18-16.27,1.24-28.43-1.06-35.73-13.53-3-5.08-5.15-11.84-6.47-20.74a34,34,0,0,0,3.38,1.8,63.16,63.16,0,0,0,34.6,5.4c14.77-1.86,24.07-4.8,28.68-6.57A35.89,35.89,0,0,0,280.39,200.83Z"/><path class="cls-10" d="M276.18,210.83h0c-.22,1-.4,1.59-.4,1.59h0c-.08.13-2.16,3.32-11.42,6.09a79.31,79.31,0,0,1-10.77,2.34,68.69,68.69,0,0,1-19.76,0,69.88,69.88,0,0,1-15.34-3.83h0a11.87,11.87,0,0,1-1.1-1.79h0a52.14,52.14,0,0,1-3.73-11.74,63.16,63.16,0,0,0,34.6,5.4c14.77-1.86,24.07-4.8,28.68-6.57A31.36,31.36,0,0,1,276.18,210.83Z"/><path class="cls-10" d="M276.58,215.8c-3.67,9.09-10.73,19.14-24.13,20.18-16.27,1.24-28.43-1.06-35.73-13.53a23.58,23.58,0,0,1,1.29-4.38c.26-.66.45-1,.45-1h0a83.87,83.87,0,0,0,26.71,2.57,94.31,94.31,0,0,0,21.27-3.77,66.94,66.94,0,0,0,9.31-3.42h0l.31,1.31Z"/><path class="cls-11" d="M250.75,219.87a94.89,94.89,0,0,1-16.92,1A48.82,48.82,0,0,1,218,218.07c.26-.66.45-1,.45-1a11.87,11.87,0,0,1-1.1-1.79c.28.1,9.32,3.28,27.84,4.37C247,219.72,248.81,219.81,250.75,219.87Z"/><path class="cls-11" d="M275.78,212.43l.31,1.31c-3.25,2.76-7.75,4.12-11.73,4.78a96,96,0,0,1-10.57,1,59.66,59.66,0,0,0,12.68-3.69,66.63,66.63,0,0,0,9.71-5C276,211.83,275.78,212.43,275.78,212.43Z"/><path class="cls-12" d="M242.24,160.52l10.81,33.71a2.53,2.53,0,0,1-2.7,3.1H238"/><path class="cls-3" d="M110.82,124.25s111.77-33.64,255.61,19.14c29.71-37.54,0-58.45,0-58.45S179.16,20.67,132.12,75.75,110.82,124.25,110.82,124.25Z"/><path class="cls-1" d="M597.58,332.84c-.16.6-.32,1.19-.51,1.8v0c-.22.76-.45,1.54-.7,2.33-.56,1.82-1.17,3.66-1.85,5.52h0c-5.41,15-14.25,31.15-26.22,40.37,0,0-25.45-13.57-29.85-19.91,0,0-6.06-14.15-8.46-27.35,0,0-4.43-16.52-.93-22.63s10.55-6.23,10.55-6.23-1.77-44.69,6.73-56.27c8.58-11.73,7.3,20.83,9,45.2.3-1.58.53-6.51,9.06-8.53,7-1.64,7.76,12.16,7.76,12.16s8.46-12,13.47-9.29c5.5,3,2.43,17.56,2.31,18.13.37-.34,6.49-6.09,11.53-.39C601.69,310.28,601,320.44,597.58,332.84Z"/><path class="cls-7" d="M560.53,334.37s12.4,8.75,5.49,29.92c0,0,12.34-16.69-5.88-34.93A4.67,4.67,0,0,0,560.53,334.37Z"/><path class="cls-7" d="M597.58,332.84c-.16.6-.32,1.19-.51,1.8v0c-.22.76-.45,1.54-.7,2.33a12.21,12.21,0,0,1-8.69,4.83c-10.13,1.32-8.42-9.21-8.42-9.21s-4.4,3.14-8.29,2.08-4.85-8.17-4.85-8.17-2.78,6.23-9.68,4.43-5.18-16.35-1.3-20.56c-.11.5-3,12.56,1.28,16.35s10.83-3,12.82-8.88c-.2.74-2.74,11,2.86,13.57s10.72-6.66,11.27-7.65c-.33.94-3.06,8.85.3,12.55C586.8,339.81,593.9,337,597.58,332.84Z"/><path class="cls-7" d="M535.68,334.17s7.64,9.43,17.55,7.6,5.14-11.69,1.13-15.71c0,0,5.94,3.13,7.06,7.95s-.22,13.47-11.22,11.8S535.68,334.17,535.68,334.17Z"/></svg>