<svg id="Layer_1" data-name="Layer 1" xmlns="http://www.w3.org/2000/svg" viewBox="0 0 443.66 287.38"><defs><style>.cls-1{fill:#fff;}.cls-2{fill:none;}</style></defs><path class="cls-1" d="M176.69,145.86h-29.8l-5.51,16.78H116.71l32.81-88a30.45,30.45,0,0,1,13.65-3.39c8.26,0,14.15,4.39,17.91,14l28.67,77.39H182.2Zm-6.63-19.79-8.27-27.55-8.26,27.55Z" transform="translate(-70.64 -16.66)"/><path class="cls-1" d="M286.77,108.67v51.84c-4.26,2.13-8.14,3.38-12.27,3.38-6.51,0-11-3.63-12.52-8.89-5.26,6.89-12.28,8.89-22.92,8.89-22.41,0-34.81-19.79-34.81-46.33s15.4-46.34,42.32-46.34c12.53,0,26.18,3.89,35.07,20.29l-24.05,9.39c-2.88-5.76-6.38-9.39-11.77-9.39-6.76,0-14.52,6.39-14.52,26.05s8,26,15.4,26c8.39,0,13.77-2.5,13.9-15.15H247.7V108.67Z" transform="translate(-70.64 -16.66)"/><path class="cls-1" d="M371.8,160.51c-5.26,2.13-10,3.38-14.9,3.38-8.64,0-12.65-5.51-13.9-13.4l-1.25-7.64c-1.13-8-4.76-12.52-11.52-12.52h-9.4v32.31H294.66V72.48c8.27-.75,27.55-1.26,33.31-1.26,25.17,0,40.07,10.15,40.07,27.55,0,9.65-4.63,17-13,21.67,7.39,4.76,11.4,12.14,12.9,21.41l1.12,7.26A58.78,58.78,0,0,0,371.8,160.51Zm-51-69.37v19.4h6.89c9.39,0,13.28-3.63,13.28-9.89S337,91,327.85,91C326,91,323.59,91,320.83,91.14Z" transform="translate(-70.64 -16.66)"/><path class="cls-1" d="M171.87,186.94,161,204.22a36.52,36.52,0,0,0-19.42-6.13c-5,0-7.89,1.75-7.89,4.38,0,3.88,6.14,5.76,14.16,8.52,11.89,4,26.67,9.52,26.67,27.93,0,20.16-14,31.56-37.7,31.56-12.52,0-24-3.76-32.68-10.15l8-17.91c6.39,4.76,15.28,7.77,26.3,7.77,6,0,9.52-2.13,9.52-5.64,0-4.63-6-6.38-13.28-8.76-12-4-27.55-9.27-27.55-29.69,0-18.41,12.53-28.3,33.69-28.3C151.08,177.8,162.6,180.68,171.87,186.94Z" transform="translate(-70.64 -16.66)"/><path class="cls-1" d="M245,249.44v19.79H180.89V179.05h62.74v19.79H207.06v14.53h32.19v19.79H207.06v16.28Z" transform="translate(-70.64 -16.66)"/><path class="cls-1" d="M326.79,243.68c0,17-14.78,26.8-39.83,26.8-6.89,0-24.17-.5-34.69-1.25V179.05c12.52-.88,26.8-1.25,32.19-1.25,24.3,0,38.57,9.64,38.57,25.67a21.66,21.66,0,0,1-10.27,18.91C321.78,226.77,326.79,234,326.79,243.68Zm-48.34-46v15.66h6.13c7.52,0,11.28-3,11.28-8s-3.76-7.76-11.28-7.76C282.83,197.59,280.83,197.59,278.45,197.71Zm21.16,44.21c0-5.63-4.63-8.76-12.52-8.76h-8.64v17.4c3.38.13,6.38.13,8.64.13C295,250.69,299.61,247.43,299.61,241.92Z" transform="translate(-70.64 -16.66)"/><path class="cls-1" d="M381.77,252.44H352l-5.51,16.79H321.78l32.81-88.05a30.43,30.43,0,0,1,13.65-3.38c8.27,0,14.16,4.38,17.91,14l28.68,77.41H387.28Zm-6.64-19.79-8.26-27.55-8.27,27.55Z" transform="translate(-70.64 -16.66)"/><path class="cls-1" d="M478.08,186.94l-10.9,17.28a36.45,36.45,0,0,0-19.41-6.13c-5,0-7.89,1.75-7.89,4.38,0,3.88,6.14,5.76,14.15,8.52,11.9,4,26.68,9.52,26.68,27.93,0,20.16-14,31.56-37.7,31.56-12.52,0-24.05-3.76-32.69-10.15l8-17.91c6.38,4.76,15.28,7.77,26.3,7.77,6,0,9.52-2.13,9.52-5.64,0-4.63-6-6.38-13.28-8.76-12-4-27.55-9.27-27.55-29.69,0-18.41,12.52-28.3,33.69-28.3C457.29,177.8,468.81,180.68,478.08,186.94Z" transform="translate(-70.64 -16.66)"/><path class="cls-1" d="M445.67,157.39c10.7-6.7,18.67-17.28,19.71-37.14.52-10-5.83-19.49-15.5-22.13a14.63,14.63,0,0,0-1.76-.37c-4.34-.63-8.5-.12-11.48,3.64a25.14,25.14,0,0,0-1.49,2.93,11.11,11.11,0,0,1-1.76,2.31c-1.29,1.22-2.69,2.32-4,3.49a3,3,0,0,0-.35.56,10.28,10.28,0,0,0,1.47.25c1.53,0,3.06.06,4.59,0,4.12-.15,7.33,1.6,10.06,4.54a22.82,22.82,0,0,0,3.57,3.24c2.05,1.45,3.54,1.13,5.18-.82.15-.18.27-.38.56-.79a2.52,2.52,0,0,1-1,2.87c-2.36,1.77-4.76,1.07-7.24-.26-.39,1.48-.77,2.86-1.12,4.25C438.88,148.23,445.49,157.5,445.67,157.39Zm-4.42-53.15v.56c-.53.4-1,1-1.61,1.14a1.42,1.42,0,1,1,0-2.83C440.21,103.21,440.71,103.84,441.25,104.24Z" transform="translate(-70.64 -16.66)"/><path class="cls-1" d="M435,112.35c2.19,1.89,2.12,1.86,1,4.32a41.59,41.59,0,0,0-1.79,5,5,5,0,0,0-.08,2.08,1.72,1.72,0,0,0,1.73,1.62c4.11.31,8.46-4.61,7.57-8.56-.64-2.89-3.14-4.62-6.63-4.59C436.3,112.21,435.78,112.29,435,112.35Z" transform="translate(-70.64 -16.66)"/><path class="cls-1" d="M450.81,96.82c2.67-.25,4.48.92,6.31,2.09,1.5,1,3,1.91,5,1.4,1.58-.42,2.91-1.19,3.32-2.83a4.11,4.11,0,0,0-1.55-4.43,7.23,7.23,0,0,0-7.83-.93A13.06,13.06,0,0,0,450.81,96.82Z" transform="translate(-70.64 -16.66)"/><path class="cls-1" d="M442.87,96.63c3.88-.5,7.54-1.3,10-4.65a9.65,9.65,0,0,0,1.24-2.27,4,4,0,0,0-2.53-5.38A4.44,4.44,0,0,0,446,86.56a7.38,7.38,0,0,0-.66,2.87C445.35,92.12,444.94,94.61,442.87,96.63Z" transform="translate(-70.64 -16.66)"/><path class="cls-1" d="M435.34,101.66c.79-2.2,2.65-3.15,4.44-4.18,1.48-.85,2.75-1.88,2.88-3.77a3.77,3.77,0,0,0-2.09-3.78,3.51,3.51,0,0,0-4.12.68,10.72,10.72,0,0,0-2.12,3.15C433.21,96.5,434.16,99.07,435.34,101.66Z" transform="translate(-70.64 -16.66)"/><path class="cls-1" d="M420.82,163.73c-.83-4.9-10.57-14-5.4-14.51A98.59,98.59,0,0,0,426,148a9.2,9.2,0,0,0,3.26-1.06,1,1,0,0,0,.45-.87c0-.69-3.26-2.65-2.08-3.11,2.32-.43,7.16,1.35,8.85-.05,2.46-2,2-9.51-.82-10-6.17-3.08-9.77-8-12.11-14.13-.33-.87-1.17-1.79-.87-2.66,2.88-8.24-1.44-13.14-2.15-19.72-.16-.42-.77-2.2-2.37-.55-3,3.08-7,7.66-6.69,14a.7.7,0,0,1-1,.61c-4.72-2.7-2.46-6.48-11.53-9.37a.83.83,0,0,0-1,.51c-.49,1.39-1.92,4.51-1.22,6.24.3.72-.57,1.89-1.68,2.47-6.69,3.52-12.42,8.71-15.58,15.57C377,131.12,375.14,138.37,377,142,387.55,162.27,409.65,164.21,420.82,163.73Z" transform="translate(-70.64 -16.66)"/><path class="cls-1" d="M416.61,60.73c3.64-2.64,4.84-5.92,2.91-8.1-.36.75-.68,1.44-1,2.12a6.44,6.44,0,0,1-3.68,3.35,2.38,2.38,0,0,1-1.07.19,21.26,21.26,0,0,0-2.92-.51,15.56,15.56,0,0,0-2.9.49c3.56-3,4.38-6.12,2-7.94a1.73,1.73,0,0,0-.28.45C409,53.37,407,55,404.3,56.3a16.05,16.05,0,0,0-2.08,1.15,4,4,0,0,0-1.75,4.64c-.63-.45-1.25-.92-1.89-1.36a8.63,8.63,0,0,0-7.1-1.55,6.51,6.51,0,0,0-1.06.33c-1.68.65-2.08,1.64-.83,2.76a51.29,51.29,0,0,0,4.25,3.12c-4.36,1.46,1.17,11-2.38,12.6A36.55,36.55,0,0,0,387,81.13c-3.78,3.34-5.35,5.21-8.82,10.53-8.38,12.87-5.33,33.12-5.27,35.79.06,2.85,4-16.73,15-20.36,7.76-2.58,5.68-5.76,7.3-9,1.26-2.52,3.14-3.08,4.43-3,3,.28,12.13-4.17,15-4.83,2.48-.57,9.47-.9,11.9-.34.73.17,1.46.31,2.2.43,2.59.39,3.88-.11,5.31-1.9a9.21,9.21,0,0,1,1.46-1.19A8,8,0,0,0,437.15,86a5.46,5.46,0,0,0,.66-4.86,3,3,0,0,0-1.57-1.49c-4.45-1.79-7.24-5-10.47-7.87a4.67,4.67,0,0,1-1.34-2.06,14.42,14.42,0,0,0-4.64-6.24C418.76,62.54,417.71,61.66,416.61,60.73Z" transform="translate(-70.64 -16.66)"/><rect class="cls-2" width="443.66" height="287.38"/></svg>